<?xml version="1.0" encoding="UTF-8"?>
<svg xmlns="http://www.w3.org/2000/svg" viewBox="0 0 225 225">
<path d="M 99 0 L 98 1 L 92 1 L 91 2 L 87 2 L 86 3 L 83 3 L 82 4 L 80 4 L 79 5 L 77 5 L 76 6 L 74 6 L 73 7 L 71 7 L 70 8 L 69 8 L 68 9 L 66 9 L 65 10 L 64 10 L 63 11 L 62 11 L 61 12 L 60 12 L 59 13 L 58 13 L 56 15 L 55 15 L 54 16 L 53 16 L 51 18 L 50 18 L 48 20 L 47 20 L 44 23 L 43 23 L 39 27 L 38 27 L 26 39 L 26 40 L 23 43 L 23 44 L 20 47 L 20 48 L 18 50 L 18 51 L 16 53 L 16 54 L 15 55 L 15 56 L 13 58 L 13 59 L 12 60 L 12 61 L 11 62 L 11 63 L 10 64 L 10 65 L 9 66 L 9 68 L 8 69 L 8 70 L 7 71 L 7 73 L 6 74 L 6 76 L 5 77 L 5 79 L 4 80 L 4 82 L 3 83 L 3 86 L 2 87 L 2 91 L 1 92 L 1 98 L 0 99 L 0 125 L 1 126 L 1 132 L 2 133 L 2 137 L 3 138 L 3 141 L 4 142 L 4 144 L 5 145 L 5 147 L 6 148 L 6 150 L 7 151 L 7 153 L 8 154 L 8 155 L 9 156 L 9 158 L 10 159 L 10 160 L 11 161 L 11 162 L 12 163 L 12 164 L 13 165 L 13 166 L 15 168 L 15 169 L 16 170 L 16 171 L 18 173 L 18 174 L 20 176 L 20 177 L 23 180 L 23 181 L 27 185 L 27 186 L 38 197 L 39 197 L 43 201 L 44 201 L 47 204 L 48 204 L 50 206 L 51 206 L 53 208 L 54 208 L 55 209 L 56 209 L 58 211 L 59 211 L 60 212 L 61 212 L 62 213 L 63 213 L 64 214 L 65 214 L 66 215 L 68 215 L 69 216 L 70 216 L 71 217 L 73 217 L 74 218 L 76 218 L 77 219 L 79 219 L 80 220 L 82 220 L 83 221 L 86 221 L 87 222 L 91 222 L 92 223 L 98 223 L 99 224 L 125 224 L 126 223 L 132 223 L 133 222 L 137 222 L 138 221 L 141 221 L 142 220 L 144 220 L 145 219 L 147 219 L 148 218 L 150 218 L 151 217 L 153 217 L 154 216 L 155 216 L 156 215 L 158 215 L 159 214 L 160 214 L 161 213 L 162 213 L 163 212 L 164 212 L 166 210 L 167 210 L 168 209 L 169 209 L 170 208 L 171 208 L 173 206 L 174 206 L 176 204 L 177 204 L 180 201 L 181 201 L 185 197 L 186 197 L 197 186 L 197 185 L 201 181 L 201 180 L 204 177 L 204 176 L 206 174 L 206 173 L 208 171 L 208 170 L 209 169 L 209 168 L 211 166 L 211 165 L 212 164 L 212 163 L 213 162 L 213 161 L 214 160 L 214 159 L 215 158 L 215 156 L 216 155 L 216 154 L 217 153 L 217 151 L 218 150 L 218 148 L 219 147 L 219 145 L 220 144 L 220 142 L 221 141 L 221 138 L 222 137 L 222 133 L 223 132 L 223 126 L 224 125 L 224 99 L 223 98 L 223 92 L 222 91 L 222 87 L 221 86 L 221 83 L 220 82 L 220 80 L 219 79 L 219 77 L 218 76 L 218 74 L 217 73 L 217 71 L 216 70 L 216 69 L 215 68 L 215 66 L 214 65 L 214 64 L 213 63 L 213 62 L 212 61 L 212 60 L 210 58 L 210 57 L 209 56 L 209 55 L 208 54 L 208 53 L 206 51 L 206 50 L 204 48 L 204 47 L 201 44 L 201 43 L 197 39 L 197 38 L 186 27 L 185 27 L 181 23 L 180 23 L 177 20 L 176 20 L 174 18 L 173 18 L 171 16 L 170 16 L 169 15 L 168 15 L 166 13 L 165 13 L 164 12 L 163 12 L 162 11 L 161 11 L 160 10 L 159 10 L 158 9 L 156 9 L 155 8 L 154 8 L 153 7 L 151 7 L 150 6 L 148 6 L 147 5 L 145 5 L 144 4 L 142 4 L 141 3 L 138 3 L 137 2 L 133 2 L 132 1 L 126 1 L 125 0 Z" fill="#00AEEF" stroke="none"/>
</svg>